<svg xmlns="http://www.w3.org/2000/svg" viewBox="0 0 346.51 350.87"><defs><style>.cls-1{fill:#2a64a0;}.cls-2{fill:#238ec3;}</style></defs><title>SEGUIMIENTO</title><g id="DESIGNED_BY_FREEPIK" data-name="DESIGNED BY FREEPIK"><path class="cls-1" d="M275.48,72.12l-6-4.07-5,5.28-2.24,7.88L235.93,96.14,233.43,87l-7.35-11.34,1.8-3.44,8.27.55,5-1.78,2.54-9.27,4.32-.59-1.89-4.11L243.8,52l-.46-11.57L236,35.06a48.18,48.18,0,0,0,0-7.31c-.11-1.75-4.72-6.54-4.72-6.54-1.1,4.11.85,6.4.95,7.68a13.54,13.54,0,0,0,2.17,5.42l-1.35,0s-1.68-4.46-2.31-6.75c-.8-2.9-8.75-10.07-8.75-10.07s2.61,7.49,4.24,11.56c.81,2,4.37,5.32,4.37,5.32l-2.1,0a72.3,72.3,0,0,0-4.71-7.68c-2.29-3.05-11.27-10.95-11.27-10.95s4.17,10.27,5.51,13.59c.94,2.34,8.29,5.06,8.29,5.06l-1.61,0h-3l-2.65.17a17.78,17.78,0,0,0-6.21,1.92c-3.62,1.78-3.84,2-6.58,2.23s-3.77.52-4.8.45-3.55-.43-3.55-.43a21.72,21.72,0,0,0,4.59,2.06,38.07,38.07,0,0,1-8.65.46c-3.33-.44-4.15-1-4.15-1s5.78,3.91,10.29,5.16l4.51,1.24a6.63,6.63,0,0,1-6.5,2.16s.08.89,5.92,2.06,6.58,2.28,6.58,2.28-.59.37-4.51,0c0,0-.71.56,3,1.54a6.86,6.86,0,0,1,2.75,1.45l-5.23,2.59-18.08-6.43L159.61,51,129.29,72.9l-11.61,5L116.59,88l3.07,4.29,4.87-2.57,2,.34,6.59-8.93,30.74-14.52,10.46,5.26,10.1,1.36L146,114.63l-3.12,7.67c-8.69,2.22-14.3,3.13-14.3,3.13s-1,.71-5-3.07-3.73-15.43-3.73-15.43l1-3.1c14.19-5.58,47.68-13.46,47.68-13.46l1.17-1.27s-38.15,6.23-48.56,9.62S97,114.52,94.35,119.34s-1.94,30.23-1.94,30.23l4.22,2.94s-1.1,1.71,9.74-8.29a54.31,54.31,0,0,1,24.16-12.47c3.16-.49,6.23-1.11,9.24-1.78l-14.35,35.29L101.3,184.54,84.65,211.28l-9.48-2-7.25,6,2.13,13.44-.8,19.11,7.26,5,2.46-.23-1.3-8,4.4-12.51L89,222.22l37.86-33L138,185l2-5.86L171,150.34l19.58,6.49L178.27,167l-12.74,15.55-8.39-.3-7.32,5.94,2.72,8.31,15,19.32,4.57,1.19,1.13-5.63L169.06,196l1.36-5,46.75-26.67L220.55,153l-6.71-11.49-24.41-18.86,27.12-20.49,10.21,13.39,9.2.32,16.51-11.5L267.11,86.8l10.93-6Z"/><path class="cls-2" d="M119.83,106.93s-.27,11.65,3.73,15.43,5,3.07,5,3.07S195,114.8,226.08,75.69l.45.69s-34.59,45.72-96,55.37a54.31,54.31,0,0,0-24.16,12.47c-10.84,10-9.74,8.29-9.74,8.29l-4.22-2.94s-.71-25.41,1.94-30.23,16.39-17.22,26.8-20.62,48.57-9.62,48.57-9.62l-1.18,1.27s-33.49,7.88-47.68,13.46Z"/><path class="cls-1" d="M150.56,334.45a7.18,7.18,0,0,1-3,.62,5,5,0,0,1-5.24-5.35,5.33,5.33,0,0,1,5.63-5.59,6.42,6.42,0,0,1,2.65.53l-.43,1.48a4.34,4.34,0,0,0-2.21-.49c-2.41,0-3.71,1.78-3.71,4a3.61,3.61,0,0,0,3.66,3.93,5.53,5.53,0,0,0,2.34-.53Z"/><path class="cls-1" d="M162.16,329.48c0,3.89-2.68,5.59-5.22,5.59-2.84,0-5-2.07-5.05-5.39,0-3.52,2.29-5.59,5.2-5.59S162.15,326.27,162.16,329.48Zm-8.34.13c0,2.3,1.34,4,3.2,4s3.19-1.72,3.19-4.09c0-1.78-.9-4-3.16-4S153.82,327.61,153.82,329.61Z"/><path class="cls-1" d="M173.36,331.94c0,1.08,0,2,.09,2.86h-1.69l-.11-1.71h0a4,4,0,0,1-3.47,2c-1.65,0-3.63-.91-3.64-4.6v-6.14h1.91v5.82c0,2,.62,3.34,2.35,3.33a2.68,2.68,0,0,0,2.69-2.71V324.3h1.91Z"/><path class="cls-1" d="M176.52,327.57c0-1.24,0-2.3-.09-3.28h1.67l.07,2.06h.09a3.15,3.15,0,0,1,2.9-2.31,1.77,1.77,0,0,1,.54.07v1.8a2.57,2.57,0,0,0-.66-.07,2.69,2.69,0,0,0-2.55,2.46,5.82,5.82,0,0,0-.09.89v5.6h-1.88Z"/><path class="cls-1" d="M185.82,321.32a1.19,1.19,0,0,1-2.37,0,1.16,1.16,0,0,1,1.2-1.19A1.13,1.13,0,0,1,185.82,321.32Zm-2.1,13.46,0-10.5h1.91l0,10.51Z"/><path class="cls-1" d="M189.85,329.86a3.36,3.36,0,0,0,3.61,3.64,6.81,6.81,0,0,0,2.91-.55l.33,1.37a8.4,8.4,0,0,1-3.5.66c-3.23,0-5.17-2.12-5.17-5.29s1.85-5.66,4.91-5.67c3.43,0,4.35,3,4.35,4.94a7.91,7.91,0,0,1-.06.89Zm5.6-1.37c0-1.22-.51-3.11-2.66-3.1-1.93,0-2.77,1.78-2.92,3.11Z"/><path class="cls-1" d="M199.66,327.52c0-1.23,0-2.3-.1-3.27h1.68l.06,2.06h.09a3.15,3.15,0,0,1,2.9-2.3,2.32,2.32,0,0,1,.55.06v1.8a3.06,3.06,0,0,0-.65-.06,2.68,2.68,0,0,0-2.56,2.46,5.76,5.76,0,0,0-.08.89v5.6h-1.89Z"/><path class="cls-2" d="M101.84,260.67a29.65,29.65,0,0,1,7.75.83,12.81,12.81,0,0,1,4.86,2.33,7.79,7.79,0,0,1,2.45,3.47,9.86,9.86,0,0,1,.47,4.17,10.61,10.61,0,0,1-.7,3.83l-15.44,38.27-15.3,0,4.58-11.84-6.44,0-4.72,11.83-15.65,0,17.13-42.59a14.92,14.92,0,0,1,2.4-4.26,12,12,0,0,1,6.15-4.54,26,26,0,0,1,5.24-1.18A57.49,57.49,0,0,1,101.84,260.67Zm-1.6,16a2.42,2.42,0,0,0,.07-2.2,1.78,1.78,0,0,0-1.7-.92,4.25,4.25,0,0,0-2.52.93,5.56,5.56,0,0,0-1.8,2.2l-4.37,10.7h6.16Z"/><path class="cls-2" d="M141.43,301.45l-4.86,12.05-30.74.06,21.08-52.09,15.15,0-16.14,40Z"/><path class="cls-2" d="M179.22,287.36l3.66,26.05-12.68,0c-1.65,0-2.59-.7-2.83-2.12l-2.73-19.61-8.81,21.76-15.16,0,21.08-52.09,15.15,0L170,278.53l14-14.76a7.81,7.81,0,0,1,2.72-1.77,8.34,8.34,0,0,1,3.15-.65l14.09,0Z"/><path class="cls-2" d="M224.49,260.44a20.58,20.58,0,0,1,8.08,1.4,10.5,10.5,0,0,1,5,4.17,12.39,12.39,0,0,1,1.68,6.76,26.32,26.32,0,0,1-2,9.1q-1.83,5-3.63,9.25t-3.56,8.4a44.52,44.52,0,0,1-3.92,7.72,15.63,15.63,0,0,1-4.24,4.44,12.9,12.9,0,0,1-5.16,2,41.81,41.81,0,0,1-6.62.47l-7.16,0a19,19,0,0,1-5.81-.88,9.14,9.14,0,0,1-4.46-3,9.72,9.72,0,0,1-1.93-5.63,21.59,21.59,0,0,1,1.83-8.75l2.68-6.73c.8-2,1.66-4.15,2.61-6.52s1.87-4.7,2.81-7a29.67,29.67,0,0,1,3.32-6.21,21.83,21.83,0,0,1,4.6-4.79,20.83,20.83,0,0,1,5.8-3.09,21.42,21.42,0,0,1,6.93-1.11Zm-2,16a2.35,2.35,0,0,0,0-2.19,1.93,1.93,0,0,0-1.81-.92,3.87,3.87,0,0,0-2.55.68,6.41,6.41,0,0,0-1.48,2.52l-8.81,22c-.71,1.79-.9,2.95-.6,3.47a1.92,1.92,0,0,0,1.81.77,4.44,4.44,0,0,0,2.55-.67,5.2,5.2,0,0,0,1.69-2.45Z"/><path class="cls-2" d="M271.8,261.27a13.94,13.94,0,0,1,6.44,1.9,9.66,9.66,0,0,1,3.55,3.85,10,10,0,0,1,1,5,17.15,17.15,0,0,1-1.19,5.41,20.15,20.15,0,0,1-2.68,4.86,23.16,23.16,0,0,1-3.29,3.51,18.32,18.32,0,0,1-3.57,2.45c-1.23.64-2.41,1.2-3.54,1.67a5.81,5.81,0,0,1,4.05,4.53,13.76,13.76,0,0,1-1.05,8.07l-4.3,10.7-13.24,0a2.82,2.82,0,0,1-1.81-.74,1.82,1.82,0,0,1-.32-2.23l4.72-11.69a2.23,2.23,0,0,0-.15-2.2,2.1,2.1,0,0,0-1.84-.92h-3l-7.12,17.79-15.65,0,20.79-52.09,22.24,0Zm-6.63,15.09a2.45,2.45,0,0,0,0-2.19,1.87,1.87,0,0,0-1.74-.92h-2.83l-3.31,8.15h2.9a4.11,4.11,0,0,0,2.44-.92,5.46,5.46,0,0,0,1.8-2.2Z"/></g></svg>